<?xml version="1.0" standalone="no"?>
<!DOCTYPE svg PUBLIC "-//W3C//DTD SVG 20010904//EN"
 "http://www.w3.org/TR/2001/REC-SVG-20010904/DTD/svg10.dtd">
<svg version="1.0" xmlns="http://www.w3.org/2000/svg"
 width="984.000000pt" height="553.000000pt" viewBox="0 0 984.000000 553.000000"
 preserveAspectRatio="xMidYMid meet">
<metadata>
Created by potrace 1.16, written by Peter Selinger 2001-2019
</metadata>
<g transform="translate(0.000000,553.000000) scale(0.100000,-0.100000)"
fill="#000000" stroke="none">
<path d="M0 2765 l0 -2765 4920 0 4920 0 0 2765 0 2765 -4920 0 -4920 0 0
-2765z m6390 2610 c201 -23 311 -42 456 -80 568 -149 968 -465 1134 -898 52
-135 90 -314 90 -429 l0 -58 -413 0 -413 0 -12 89 c-68 512 -433 873 -1012
1001 -164 36 -297 51 -500 57 -339 9 -665 -25 -1015 -107 -111 -26 -424 -119
-540 -161 -73 -27 -83 -33 -69 -43 13 -10 14 -17 6 -33 -7 -11 -8 -43 -5 -78
5 -43 3 -56 -5 -51 -7 4 -12 3 -12 -3 0 -5 6 -11 13 -14 6 -2 -4 -9 -23 -14
-80 -24 -320 -117 -472 -185 -364 -161 -712 -363 -973 -564 l-83 -64 -149 0
-148 0 195 191 c216 212 297 281 475 402 907 619 1843 969 2790 1046 175 14
540 12 685 -4z m-585 -713 c391 -60 691 -194 910 -405 l90 -87 -125 59 c-158
75 -299 122 -470 155 -191 37 -283 46 -550 52 -586 15 -1161 -94 -1893 -359
-71 -26 -100 -43 -57 -33 65 14 573 26 720 17 624 -40 649 -44 290 -52 -451
-10 -747 -48 -1051 -134 -89 -25 -163 -44 -165 -43 -1 2 39 25 89 51 87 45
145 83 136 91 -2 2 -73 -14 -158 -36 -152 -39 -185 -52 -399 -167 l-73 -38
-244 -2 c-135 -1 -245 2 -245 6 0 4 11 15 23 24 441 310 942 554 1467 714 385
117 627 165 1055 209 108 11 525 -3 650 -22z m-3134 -1207 c77 -28 119 -85
119 -163 0 -33 -32 -157 -95 -377 -28 -94 -106 -175 -215 -221 -39 -16 -80
-19 -320 -24 l-274 -5 -50 -177 -49 -178 -144 0 c-133 0 -144 1 -139 18 3 9
23 85 46 167 22 83 76 274 119 425 43 151 76 278 74 283 -2 4 -176 7 -386 7
-447 0 -432 3 -459 -94 -14 -52 -14 -58 1 -76 15 -18 33 -20 261 -22 240 -3
246 -3 289 -28 81 -46 101 -131 61 -260 -11 -36 -29 -101 -41 -145 -30 -118
-85 -191 -184 -243 l-50 -27 -432 -3 -432 -3 19 58 c10 32 28 91 40 131 l21
72 339 0 c232 0 347 4 364 11 41 19 83 153 54 176 -9 8 -96 13 -258 15 -240 3
-246 4 -289 28 -93 53 -102 127 -41 341 44 155 61 189 119 242 99 90 50 86
1027 86 750 1 867 -1 905 -14z m1173 -14 c94 -59 97 -117 20 -395 -156 -567
-163 -584 -240 -659 -75 -73 -101 -77 -473 -77 -356 0 -377 3 -424 56 -26 30
-45 78 -46 117 -2 53 210 776 240 819 30 45 78 95 113 121 59 42 102 46 446
44 324 -2 325 -2 364 -26z m1133 0 c50 -29 83 -87 83 -147 0 -55 -86 -370
-115 -420 -33 -56 -106 -121 -171 -151 -30 -13 -54 -27 -54 -29 0 -3 36 -85
81 -182 45 -97 83 -183 86 -189 4 -10 -33 -13 -163 -13 l-169 0 -84 190 -84
191 -110 -3 -111 -3 -34 -120 c-18 -66 -42 -150 -53 -187 l-20 -68 -144 0
c-111 0 -143 3 -140 13 2 6 25 89 51 182 72 262 135 489 204 738 l63 228 421
-3 421 -3 42 -24z m1073 21 c0 -10 -37 -147 -56 -204 l-16 -48 -154 0 c-153 0
-155 0 -163 -23 -9 -22 -52 -175 -195 -687 l-51 -185 -149 -3 c-122 -2 -147 0
-143 11 6 15 243 843 249 867 2 13 -17 15 -125 18 -112 2 -128 5 -123 18 3 9
6 67 6 130 l0 114 460 0 c253 0 460 -3 460 -8z m928 -22 c74 -42 94 -109 67
-222 -46 -189 -122 -270 -283 -302 l-67 -14 53 -1 c105 -2 167 -61 165 -156
-1 -27 -15 -93 -31 -146 -33 -112 -79 -182 -148 -228 -92 -61 -101 -61 -531
-59 l-390 3 35 128 35 127 322 0 c378 0 361 -5 394 107 22 72 17 97 -20 108
-11 4 -97 4 -189 0 -93 -4 -207 -4 -253 0 l-85 7 36 109 37 108 261 1 c305 0
300 -2 328 98 17 63 14 88 -12 96 -10 3 -84 5 -167 4 -338 -2 -445 1 -445 16
0 14 59 226 67 239 3 4 179 7 391 5 l387 -3 43 -25z m1209 -99 l-41 -130 -318
-3 -318 -3 -24 -25 c-17 -17 -36 -62 -60 -145 -19 -66 -38 -129 -42 -140 -4
-11 16 5 44 36 82 89 88 91 335 87 201 -3 214 -4 249 -26 42 -26 78 -91 78
-141 0 -50 -78 -330 -105 -377 -35 -60 -104 -119 -169 -143 -54 -20 -74 -21
-374 -21 -287 0 -321 2 -357 19 -70 32 -105 86 -105 161 0 21 27 132 60 247
162 569 160 563 249 646 90 84 92 85 552 86 l386 1 -40 -129z m1098 103 c95
-49 106 -121 49 -316 -20 -67 -69 -235 -108 -373 -76 -261 -95 -305 -163 -366
-79 -71 -96 -74 -478 -74 -325 0 -342 1 -380 21 -23 12 -50 37 -63 60 -38 65
-27 132 81 509 52 182 102 348 111 369 22 52 77 119 122 146 75 47 99 49 454
47 318 -2 337 -3 375 -23z m-8306 -1751 c25 -192 89 -357 194 -500 378 -515
1196 -717 2271 -562 174 25 473 88 637 134 139 39 139 39 139 24 0 -5 -4 -8
-9 -4 -5 3 -12 1 -16 -5 -3 -5 -1 -10 5 -10 6 0 8 -5 4 -11 -4 -7 -8 -29 -9
-49 -2 -34 1 -38 32 -49 30 -11 48 -8 166 24 230 63 338 101 638 220 83 33
110 40 125 32 17 -9 18 -9 5 6 -12 15 -12 17 4 11 12 -5 16 -4 12 3 -5 7 8 16
30 23 21 6 45 14 53 17 19 8 28 10 69 16 58 10 97 -48 71 -108 -7 -17 -9 -16
-10 10 -1 20 -4 25 -8 14 -7 -17 -44 -17 -50 -1 -5 16 -52 1 -52 -17 -1 -14
-2 -14 -11 2 -12 21 -23 22 -43 1 -12 -12 -16 -12 -17 -2 -1 7 -5 0 -9 -17
l-8 -30 -1 33 c-1 29 -3 31 -20 23 -10 -6 -21 -7 -25 -4 -3 3 -6 -9 -6 -28 0
-26 -3 -30 -10 -19 -8 12 -10 10 -10 -8 0 -14 -4 -20 -10 -17 -8 5 -10 -16 -8
-64 2 -39 6 -71 9 -71 4 0 23 7 44 16 20 8 39 13 41 11 12 -12 -400 -151 -638
-216 -602 -165 -1140 -240 -1648 -228 -396 9 -672 52 -985 153 -130 41 -357
151 -470 225 -103 69 -269 233 -332 330 -99 152 -168 346 -180 506 -5 66 13
281 22 271 2 -2 8 -40 14 -85z"/>
<path d="M2021 3143 c-11 -38 -27 -95 -37 -128 -9 -33 -19 -66 -21 -72 -4 -10
40 -13 201 -13 l206 0 28 28 c21 19 36 53 56 120 40 139 50 132 -204 132
l-209 0 -20 -67z"/>
<path d="M3176 3194 c-9 -8 -23 -39 -31 -67 -8 -29 -46 -158 -83 -289 -47
-161 -66 -241 -60 -252 8 -14 37 -16 207 -16 175 0 201 2 220 18 26 21 186
562 176 599 l-5 23 -204 0 c-172 0 -207 -2 -220 -16z"/>
<path d="M4312 3193 c-9 -18 -72 -232 -72 -246 0 -4 92 -7 204 -7 249 0 239
-5 281 135 21 72 26 102 18 114 -9 14 -38 16 -216 19 -189 2 -207 1 -215 -15z"/>
<path d="M7362 2782 c-22 -22 -67 -174 -59 -197 5 -13 34 -15 191 -15 200 0
228 6 245 49 29 74 42 141 31 161 -10 19 -20 20 -200 20 -170 0 -192 -2 -208
-18z"/>
<path d="M8620 3192 c-15 -12 -31 -50 -49 -117 -16 -55 -52 -185 -80 -288 -29
-103 -50 -194 -47 -202 4 -12 38 -15 196 -15 216 0 242 6 258 63 5 17 42 148
82 289 61 213 71 260 60 273 -10 12 -44 15 -205 15 -170 0 -195 -2 -215 -18z"/>
</g>
</svg>
